<?xml version="1.0" encoding="UTF-8" standalone="no"?>
<!-- Created with Inkscape (http://www.inkscape.org/) -->

<svg
   width="15.999863mm"
   height="12.999574mm"
   viewBox="0 0 15.999863 12.999573"
   version="1.1"
   id="svg1"
   inkscape:version="1.3 (1:1.3+202307231459+0e150ed6c4)"
   sodipodi:docname="heart_full_out.svg"
   xmlns:inkscape="http://www.inkscape.org/namespaces/inkscape"
   xmlns:sodipodi="http://sodipodi.sourceforge.net/DTD/sodipodi-0.dtd"
   xmlns="http://www.w3.org/2000/svg"
   xmlns:svg="http://www.w3.org/2000/svg">
  <sodipodi:namedview
     id="namedview1"
     pagecolor="#505050"
     bordercolor="#eeeeee"
     borderopacity="1"
     inkscape:showpageshadow="0"
     inkscape:pageopacity="0"
     inkscape:pagecheckerboard="0"
     inkscape:deskcolor="#d1d1d1"
     inkscape:document-units="mm"
     inkscape:zoom="1.4142136"
     inkscape:cx="386.0803"
     inkscape:cy="325.26912"
     inkscape:window-width="1850"
     inkscape:window-height="1016"
     inkscape:window-x="0"
     inkscape:window-y="0"
     inkscape:window-maximized="1"
     inkscape:current-layer="layer1" />
  <defs
     id="defs1" />
  <g
     inkscape:label="Layer 1"
     inkscape:groupmode="layer"
     id="layer1"
     transform="translate(-109.65108,-73.234383)">
    <path
       d="m 113.96037,73.956728 c -0.94207,-0.0232 -1.93177,0.258151 -2.53856,0.985936 -1.03113,1.175814 -1.30284,2.895479 -0.80257,4.335831 0.71625,1.755238 2.35782,2.939091 3.91608,3.99499 1.03865,0.686363 2.11645,1.320511 3.11385,2.062398 2.16816,-1.607744 4.77662,-2.768402 6.41711,-4.945699 1.14871,-1.465886 1.11091,-3.59525 0.0838,-5.107805 -0.52367,-0.798672 -1.45849,-1.294857 -2.44166,-1.314058 -1.20231,-0.06642 -2.57432,0.183377 -3.31315,1.183016 -0.39664,0.357931 -0.64643,1.355877 -0.76975,1.487935 -0.27554,-1.209507 -1.21767,-2.374697 -2.56066,-2.56642 -0.36291,-0.0735 -0.73343,-0.114291 -1.10453,-0.116124 z"
       style="fill:#ff0000;fill-opacity:1;stroke:#f9f9f9;stroke-width:1.44198;stroke-dasharray:none"
       id="path24"
       inkscape:export-filename="heart_full_out.svg"
       inkscape:export-xdpi="96"
       inkscape:export-ydpi="96" />
  </g>
</svg>
