<?xml version="1.0" encoding="UTF-8" standalone="no"?>
<!-- Created with Inkscape (http://www.inkscape.org/) -->

<svg
   width="118.3862mm"
   height="97.051521mm"
   viewBox="0 0 118.3862 97.051521"
   version="1.1"
   id="svg1"
   inkscape:version="1.3 (1:1.3+202307231459+0e150ed6c4)"
   sodipodi:docname="icon.svg"
   xmlns:inkscape="http://www.inkscape.org/namespaces/inkscape"
   xmlns:sodipodi="http://sodipodi.sourceforge.net/DTD/sodipodi-0.dtd"
   xmlns="http://www.w3.org/2000/svg"
   xmlns:svg="http://www.w3.org/2000/svg">
  <sodipodi:namedview
     id="namedview1"
     pagecolor="#505050"
     bordercolor="#eeeeee"
     borderopacity="1"
     inkscape:showpageshadow="0"
     inkscape:pageopacity="0"
     inkscape:pagecheckerboard="0"
     inkscape:deskcolor="#d1d1d1"
     inkscape:document-units="mm"
     inkscape:zoom="1.4142136"
     inkscape:cx="386.0803"
     inkscape:cy="325.26912"
     inkscape:window-width="1850"
     inkscape:window-height="1016"
     inkscape:window-x="0"
     inkscape:window-y="0"
     inkscape:window-maximized="1"
     inkscape:current-layer="layer1" />
  <defs
     id="defs1" />
  <g
     inkscape:label="Layer 1"
     inkscape:groupmode="layer"
     id="layer1"
     transform="translate(-56.796853,-31.283071)">
    <path
       d="m 85.992167,31.34434 c -7.659397,-0.198033 -15.7061,2.19888 -20.639358,8.398116 -8.383514,10.01551 -10.592702,24.663485 -6.525336,36.932363 5.82345,14.950944 19.170036,25.034981 31.839344,34.029051 8.444601,5.84638 17.207493,11.24797 25.316803,17.56737 17.62796,-13.69465 38.83584,-23.58111 52.17356,-42.127146 9.3394,-12.486363 9.03217,-30.624145 0.68165,-43.507939 -4.25757,-6.803037 -11.85796,-11.029494 -19.8515,-11.193115 -9.77539,-0.565488 -20.93025,1.561996 -26.93738,10.076906 -3.22471,3.048829 -5.25566,11.549244 -6.25835,12.674153 -2.24012,-10.302514 -9.90005,-20.227541 -20.819066,-21.860672 -2.95061,-0.625792 -5.963113,-0.973504 -8.980367,-0.989087 z"
       style="fill:#ff0000;fill-opacity:0.656377;stroke:#f9f9f9;stroke-width:0.1"
       id="path24"
       inkscape:export-filename="heart_out.svg"
       inkscape:export-xdpi="96"
       inkscape:export-ydpi="96" />
  </g>
</svg>
